<?xml version="1.0" encoding="utf-8"?>
<!-- Generator: Adobe Illustrator 24.1.3, SVG Export Plug-In . SVG Version: 6.00 Build 0)  -->
<svg version="1.1" baseProfile="tiny" id="Calque_1"
	 xmlns="http://www.w3.org/2000/svg" xmlns:xlink="http://www.w3.org/1999/xlink" x="0px" y="0px" viewBox="0 0 200 100"
	 overflow="visible" xml:space="preserve">
<g>
	<path fill="#FFFFFF" d="M19.3,66.6c-0.8,0-1.5-0.7-1.5-1.5V34.9c0-0.8,0.7-1.5,1.5-1.5s1.5,0.7,1.5,1.5v30.2
		C20.8,65.9,20.1,66.6,19.3,66.6z"/>
	<path fill="#FFFFFF" d="M25.3,60.6c-0.8,0-1.5-0.7-1.5-1.5V34.9c0-0.8,0.7-1.5,1.5-1.5c0.8,0,1.5,0.7,1.5,1.5v24.1
		C26.8,59.9,26.1,60.6,25.3,60.6z"/>
	<path fill="#FFFFFF" d="M31.3,60.6c-0.8,0-1.5-0.7-1.5-1.5V34.9c0-0.8,0.7-1.5,1.5-1.5c0.8,0,1.5,0.7,1.5,1.5v24.1
		C32.8,59.9,32.2,60.6,31.3,60.6z"/>
	<path fill="#FFFFFF" d="M37.4,60.6c-0.8,0-1.5-0.7-1.5-1.5V34.9c0-0.8,0.7-1.5,1.5-1.5s1.5,0.7,1.5,1.5v24.1
		C38.9,59.9,38.2,60.6,37.4,60.6z"/>
	<path fill="#FFFFFF" d="M43.4,66.6c-0.8,0-1.5-0.7-1.5-1.5V34.9c0-0.8,0.7-1.5,1.5-1.5s1.5,0.7,1.5,1.5v30.2
		C44.9,65.9,44.2,66.6,43.4,66.6z"/>
	<path fill="#FFFFFF" d="M49.4,60.6c-0.8,0-1.5-0.7-1.5-1.5V34.9c0-0.8,0.7-1.5,1.5-1.5s1.5,0.7,1.5,1.5v24.1
		C51,59.9,50.3,60.6,49.4,60.6z"/>
	<path fill="#FFFFFF" d="M55.5,60.6c-0.8,0-1.5-0.7-1.5-1.5V34.9c0-0.8,0.7-1.5,1.5-1.5s1.5,0.7,1.5,1.5v24.1
		C57,59.9,56.3,60.6,55.5,60.6z"/>
	<path fill="#FFFFFF" d="M61.5,60.6c-0.8,0-1.5-0.7-1.5-1.5V34.9c0-0.8,0.7-1.5,1.5-1.5c0.8,0,1.5,0.7,1.5,1.5v24.1
		C63,59.9,62.4,60.6,61.5,60.6z"/>
	<path fill="#FFFFFF" d="M67.6,66.6c-0.8,0-1.5-0.7-1.5-1.5V34.9c0-0.8,0.7-1.5,1.5-1.5s1.5,0.7,1.5,1.5v30.2
		C69.1,65.9,68.4,66.6,67.6,66.6z"/>
	<path fill="#FFFFFF" d="M25.3,66.6c-0.2,0-0.4,0-0.6-0.1c-0.2-0.1-0.4-0.2-0.5-0.3c-0.6-0.6-0.6-1.5-0.1-2.1c0,0,0,0,0.1-0.1
		c0.1-0.2,0.3-0.3,0.5-0.3c0.6-0.2,1.2-0.1,1.6,0.3c0.6,0.6,0.6,1.6,0,2.1C26.1,66.4,25.7,66.6,25.3,66.6z"/>
	<path fill="#FFFFFF" d="M31.3,66.6c-0.2,0-0.4,0-0.6-0.1c-0.2-0.1-0.4-0.2-0.5-0.3c-0.6-0.6-0.6-1.5-0.1-2.1c0,0,0,0,0.1-0.1
		c0.1-0.2,0.3-0.3,0.5-0.3c0.6-0.2,1.2-0.1,1.6,0.3c0.2,0.1,0.3,0.3,0.3,0.5c0.2,0.4,0.2,0.8,0,1.1c-0.1,0.2-0.2,0.4-0.3,0.5
		C32.1,66.4,31.7,66.6,31.3,66.6z"/>
	<path fill="#FFFFFF" d="M37.4,66.6c-0.2,0-0.4,0-0.6-0.1c-0.2-0.1-0.4-0.2-0.5-0.3c-0.6-0.6-0.6-1.5-0.1-2.1c0,0,0,0,0.1-0.1
		c0.1-0.2,0.3-0.3,0.5-0.3c0.6-0.2,1.2-0.1,1.6,0.3c0.2,0.1,0.3,0.3,0.3,0.5c0.2,0.4,0.2,0.8,0,1.1c-0.1,0.2-0.2,0.4-0.3,0.5
		C38.2,66.4,37.8,66.6,37.4,66.6z"/>
	<path fill="#FFFFFF" d="M49.4,66.6c-0.8,0-1.5-0.7-1.5-1.5c0-0.4,0.2-0.8,0.4-1c0.6-0.6,1.5-0.6,2.1,0c0.2,0.1,0.3,0.3,0.3,0.5
		c0.2,0.4,0.2,0.8,0,1.1c-0.1,0.2-0.2,0.4-0.3,0.5C50.2,66.4,49.8,66.6,49.4,66.6z"/>
	<path fill="#FFFFFF" d="M55.5,66.6c-0.8,0-1.5-0.7-1.5-1.5c0-0.4,0.2-0.8,0.4-1c0.6-0.6,1.5-0.6,2.1,0c0.6,0.6,0.6,1.6,0,2.1
		C56.2,66.4,55.9,66.6,55.5,66.6z"/>
	<path fill="#FFFFFF" d="M61.5,66.6c-0.4,0-0.8-0.2-1.1-0.5c-0.2-0.1-0.3-0.3-0.3-0.5c-0.2-0.4-0.2-0.8,0-1.1
		c0.1-0.2,0.2-0.4,0.3-0.5c0.6-0.6,1.5-0.6,2.1,0c0.6,0.6,0.6,1.6,0,2.1C62.3,66.4,61.9,66.6,61.5,66.6L61.5,66.6z"/>
</g>
<g>
	<path fill="#FFFFFF" d="M10.2,36.4c-0.8,0-1.5-0.7-1.5-1.5v-9.1c0-0.8,0.7-1.5,1.5-1.5h9.1c0.8,0,1.5,0.7,1.5,1.5s-0.7,1.5-1.5,1.5
		h-7.5v7.5C11.7,35.7,11,36.4,10.2,36.4z"/>
	<path fill="#FFFFFF" d="M19.3,75.7h-9.1c-0.8,0-1.5-0.7-1.5-1.5v-9.1c0-0.8,0.7-1.5,1.5-1.5c0.8,0,1.5,0.7,1.5,1.5v7.5h7.5
		c0.8,0,1.5,0.7,1.5,1.5S20.1,75.7,19.3,75.7z"/>
	<path fill="#FFFFFF" d="M76.6,36.4c-0.8,0-1.5-0.7-1.5-1.5v-7.5h-7.5c-0.8,0-1.5-0.7-1.5-1.5s0.7-1.5,1.5-1.5h9.1
		c0.8,0,1.5,0.7,1.5,1.5v9.1C78.1,35.7,77.4,36.4,76.6,36.4z"/>
	<path fill="#FFFFFF" d="M76.6,75.7h-9.1c-0.8,0-1.5-0.7-1.5-1.5s0.7-1.5,1.5-1.5h7.5v-7.5c0-0.8,0.7-1.5,1.5-1.5s1.5,0.7,1.5,1.5
		v9.1C78.1,75,77.4,75.7,76.6,75.7z"/>
</g>
<path fill="#FFFFFF" d="M19.3,66.6c-0.8,0-1.5-0.7-1.5-1.5V34.9c0-0.8,0.7-1.5,1.5-1.5s1.5,0.7,1.5,1.5v30.2
	C20.8,65.9,20.1,66.6,19.3,66.6z"/>
<path fill="#FFFFFF" d="M25.3,60.6c-0.8,0-1.5-0.7-1.5-1.5V34.9c0-0.8,0.7-1.5,1.5-1.5c0.8,0,1.5,0.7,1.5,1.5v24.1
	C26.8,59.9,26.1,60.6,25.3,60.6z"/>
<path fill="#FFFFFF" d="M31.3,60.6c-0.8,0-1.5-0.7-1.5-1.5V34.9c0-0.8,0.7-1.5,1.5-1.5c0.8,0,1.5,0.7,1.5,1.5v24.1
	C32.8,59.9,32.2,60.6,31.3,60.6z"/>
<path fill="#FFFFFF" d="M37.4,60.6c-0.8,0-1.5-0.7-1.5-1.5V34.9c0-0.8,0.7-1.5,1.5-1.5s1.5,0.7,1.5,1.5v24.1
	C38.9,59.9,38.2,60.6,37.4,60.6z"/>
<path fill="#FFFFFF" d="M43.4,66.6c-0.8,0-1.5-0.7-1.5-1.5V34.9c0-0.8,0.7-1.5,1.5-1.5s1.5,0.7,1.5,1.5v30.2
	C44.9,65.9,44.2,66.6,43.4,66.6z"/>
<path fill="#FFFFFF" d="M49.4,60.6c-0.8,0-1.5-0.7-1.5-1.5V34.9c0-0.8,0.7-1.5,1.5-1.5s1.5,0.7,1.5,1.5v24.1
	C51,59.9,50.3,60.6,49.4,60.6z"/>
<path fill="#FFFFFF" d="M55.5,60.6c-0.8,0-1.5-0.7-1.5-1.5V34.9c0-0.8,0.7-1.5,1.5-1.5s1.5,0.7,1.5,1.5v24.1
	C57,59.9,56.3,60.6,55.5,60.6z"/>
<path fill="#FFFFFF" d="M61.5,60.6c-0.8,0-1.5-0.7-1.5-1.5V34.9c0-0.8,0.7-1.5,1.5-1.5c0.8,0,1.5,0.7,1.5,1.5v24.1
	C63,59.9,62.4,60.6,61.5,60.6z"/>
<path fill="#FFFFFF" d="M67.6,66.6c-0.8,0-1.5-0.7-1.5-1.5V34.9c0-0.8,0.7-1.5,1.5-1.5s1.5,0.7,1.5,1.5v30.2
	C69.1,65.9,68.4,66.6,67.6,66.6z"/>
<path fill="#FFFFFF" d="M25.3,66.6c-0.2,0-0.4,0-0.6-0.1c-0.2-0.1-0.4-0.2-0.5-0.3c-0.6-0.6-0.6-1.5,0-2.1c0,0,0,0,0,0
	c0.1-0.2,0.3-0.3,0.5-0.3c0.4-0.2,0.8-0.2,1.1,0c0.2,0.1,0.4,0.2,0.5,0.3c0.6,0.6,0.6,1.6,0,2.1C26.1,66.4,25.7,66.6,25.3,66.6z"/>
<path fill="#FFFFFF" d="M31.3,66.6c-0.8,0-1.5-0.7-1.5-1.5c0-0.4,0.2-0.8,0.4-1c0.4-0.4,1.1-0.6,1.6-0.3c0.2,0.1,0.4,0.2,0.5,0.3
	c0.6,0.6,0.6,1.6,0,2.1C32.1,66.4,31.7,66.6,31.3,66.6z"/>
<path fill="#FFFFFF" d="M37.4,66.6c-0.8,0-1.5-0.7-1.5-1.5c0-0.4,0.2-0.8,0.4-1c0.1-0.2,0.3-0.3,0.5-0.3c0.6-0.2,1.2-0.1,1.6,0.3
	c0.6,0.6,0.6,1.6,0,2.1C38.1,66.4,37.8,66.6,37.4,66.6L37.4,66.6L37.4,66.6z"/>
<path fill="#FFFFFF" d="M49.4,66.6c-0.2,0-0.4,0-0.6-0.1c-0.2-0.1-0.4-0.2-0.5-0.3c-0.6-0.6-0.6-1.5,0-2.1c0,0,0,0,0,0
	c0.1-0.2,0.3-0.3,0.5-0.3c0.4-0.2,0.8-0.2,1.1,0c0.2,0.1,0.4,0.2,0.5,0.3c0.6,0.6,0.6,1.6,0,2.1C50.2,66.4,49.8,66.6,49.4,66.6
	L49.4,66.6z"/>
<path fill="#FFFFFF" d="M55.5,66.6c-0.2,0-0.4,0-0.6-0.1c-0.2-0.1-0.4-0.2-0.5-0.3c-0.6-0.6-0.6-1.5,0-2.1c0,0,0,0,0,0
	c0.6-0.6,1.5-0.6,2.1,0c0.6,0.6,0.6,1.5,0.1,2.1c0,0,0,0-0.1,0.1c-0.1,0.2-0.3,0.3-0.5,0.3C55.9,66.6,55.7,66.6,55.5,66.6z"/>
<path fill="#FFFFFF" d="M61.5,66.6c-0.2,0-0.4,0-0.6-0.1c-0.2-0.1-0.4-0.2-0.5-0.3c-0.3-0.3-0.5-0.7-0.5-1.1c0-0.2,0-0.4,0.1-0.6
	c0.1-0.2,0.2-0.4,0.3-0.5c0.1-0.2,0.3-0.3,0.5-0.3c0.6-0.2,1.2-0.1,1.6,0.3c0.2,0.1,0.3,0.3,0.3,0.5c0.1,0.2,0.1,0.4,0.1,0.6
	C63,65.9,62.3,66.6,61.5,66.6L61.5,66.6z"/>
<path fill="#FFFFFF" d="M10.2,36.4c-0.8,0-1.5-0.7-1.5-1.5v-9.1c0-0.8,0.7-1.5,1.5-1.5h9.1c0.8,0,1.5,0.7,1.5,1.5s-0.7,1.5-1.5,1.5
	h-7.5v7.5C11.7,35.7,11,36.4,10.2,36.4z"/>
<path fill="#FFFFFF" d="M19.3,75.7h-9.1c-0.8,0-1.5-0.7-1.5-1.5v-9.1c0-0.8,0.7-1.5,1.5-1.5c0.8,0,1.5,0.7,1.5,1.5v7.5h7.5
	c0.8,0,1.5,0.7,1.5,1.5S20.1,75.7,19.3,75.7z"/>
<path fill="#FFFFFF" d="M76.6,36.4c-0.8,0-1.5-0.7-1.5-1.5v-7.5h-7.5c-0.8,0-1.5-0.7-1.5-1.5s0.7-1.5,1.5-1.5h9.1
	c0.8,0,1.5,0.7,1.5,1.5v9.1C78.1,35.7,77.4,36.4,76.6,36.4z"/>
<path fill="#FFFFFF" d="M76.6,75.7h-9.1c-0.8,0-1.5-0.7-1.5-1.5s0.7-1.5,1.5-1.5h7.5v-7.5c0-0.8,0.7-1.5,1.5-1.5s1.5,0.7,1.5,1.5
	v9.1C78.1,75,77.4,75.7,76.6,75.7z"/>
<g>
	<rect x="89.9" y="38.2" fill="none" width="105.2" height="29.8"/>
	<path fill="#FFFFFF" d="M101,43.4l-2.4,0.4c0-1.1-0.7-2.6-2.4-2.6c-1.7,0-3.1,1.4-3.1,3.9c0,2.7,1.6,3.9,3.4,3.9c1.5,0,2.6-1,3-1.7
		l1.5,1.6c-0.5,0.8-2,2.3-4.6,2.3c-3.5,0-5.9-2.3-5.9-6.1c0-3.7,2.3-6.1,5.6-6.1C99.7,38.9,101,41.5,101,43.4z"/>
	<path fill="#FFFFFF" d="M111,46.7c0,2.6-1.8,4.4-4.5,4.4c-2.7,0-4.5-1.8-4.5-4.4c0-2.6,1.8-4.4,4.5-4.4
		C109.2,42.3,111,44.1,111,46.7z M108.5,46.7c0-1.4-0.8-2.3-2-2.3c-1.2,0-2,1-2,2.3c0,1.4,0.8,2.3,2,2.3
		C107.7,49,108.5,48.1,108.5,46.7z"/>
	<path fill="#FFFFFF" d="M121,38.2v12.7l-2,0.1c-0.1-0.5-0.3-1.4-0.2-1.7h-0.1c-0.5,1-1.4,1.7-2.8,1.7c-2.3,0-3.8-1.8-3.8-4.3
		c0-2.8,1.7-4.4,3.9-4.4c1.2,0,2,0.5,2.5,1.2v-5.3H121z M118.5,47v-0.6c0-0.9-0.7-2-2-2c-1.2,0-1.9,0.9-1.9,2.3
		c0,1.4,0.8,2.3,1.9,2.3C117.8,49,118.5,48,118.5,47z"/>
	<path fill="#FFFFFF" d="M129.7,48.2l1.2,1.4c-0.6,0.8-1.8,1.5-3.7,1.5c-2.9,0-4.6-1.8-4.6-4.4c0-2.5,1.7-4.4,4.3-4.4
		c2.5,0,3.9,1.7,3.9,4c0,0.5-0.1,0.9-0.1,0.9H125c0.2,1.1,1,1.9,2.4,1.9C128.7,49.2,129.3,48.6,129.7,48.2z M125,46h3.5
		c0-1-0.6-1.8-1.7-1.8C126,44.2,125.2,44.8,125,46z"/>
	<path fill="#FFFFFF" d="M145.6,47.7c0,2.1-1.5,3.2-4.1,3.2h-5.1V39.1h4.7c2.5,0,4.1,1.2,4.1,3.2c0,1.8-1.3,2.3-1.9,2.4v0.1
		C144,44.9,145.6,45.7,145.6,47.7z M140.5,41h-1.7v3h1.8c1.2,0,1.9-0.6,1.9-1.5C142.5,41.5,141.9,41,140.5,41z M143,47.4
		c0-1.1-0.9-1.7-2.1-1.7h-2V49h2.2C142.2,49,143,48.5,143,47.4z"/>
	<path fill="#FFFFFF" d="M155.6,50.9c0,0-0.5,0.2-1.2,0.2c-1.2,0-1.8-0.5-2-1.4c-0.3,0.5-1,1.4-2.7,1.4c-1.8,0-2.9-0.9-2.9-2.3
		c0-2.1,2.2-2.6,5.4-2.7h0.1v-0.4c0-0.9-0.5-1.4-1.5-1.4c-0.9,0-1.5,0.4-1.5,1c0,0.1,0,0.2,0.1,0.3l-2.2,0.4c0,0-0.1-0.4-0.1-0.8
		c0-1.6,1.4-2.7,3.8-2.7c2.5,0,3.9,1.3,3.9,3.4v2.8c0,0.4,0.1,0.6,0.5,0.6c0.1,0,0.2,0,0.3-0.1L155.6,50.9z M152.3,47.9v-0.7h-0.1
		c-2,0.1-3,0.3-3,1.1c0,0.6,0.5,0.8,1.2,0.8C151.6,49.2,152.3,48.6,152.3,47.9z"/>
	<path fill="#FFFFFF" d="M162.8,42.6l-0.6,2.4c-0.3-0.2-0.6-0.3-1-0.3c-0.9,0-1.7,0.8-1.7,2.2v4.1H157v-8.5l1.9-0.1
		c0.2,0.6,0.3,1.5,0.3,1.9h0.1c0.3-1.1,1-1.9,2.3-1.9C162.1,42.3,162.5,42.4,162.8,42.6z"/>
	<path fill="#FFFFFF" d="M169.7,42.6L169,45c-0.3-0.2-0.6-0.3-1-0.3c-0.9,0-1.7,0.8-1.7,2.2v4.1h-2.5v-8.5l1.9-0.1
		c0.2,0.6,0.3,1.5,0.3,1.9h0.1c0.3-1.1,1-1.9,2.3-1.9C168.9,42.3,169.3,42.4,169.7,42.6z"/>
	<path fill="#FFFFFF" d="M177.1,48.2l1.2,1.4c-0.6,0.8-1.8,1.5-3.7,1.5c-2.9,0-4.6-1.8-4.6-4.4c0-2.5,1.7-4.4,4.3-4.4
		c2.5,0,3.9,1.7,3.9,4c0,0.5-0.1,0.9-0.1,0.9h-5.7c0.2,1.1,1,1.9,2.4,1.9C176.1,49.2,176.7,48.6,177.1,48.2z M172.5,46h3.5
		c0-1-0.6-1.8-1.7-1.8C173.4,44.2,172.7,44.8,172.5,46z"/>
</g>
<g>
	<rect x="99.2" y="54.7" fill="none" width="105.2" height="29.8"/>
	<path fill="#FFFFFF" d="M108.6,68.4c0,1.4-1,2.8-4.6,2.8c-3.1,0-4.5-0.9-4.5-2.2c0-0.8,0.5-1.4,1.4-1.7c-0.6-0.4-1-0.9-1-1.6
		c0-0.8,0.6-1.4,1.2-1.6c-0.6-0.5-0.9-1.3-0.9-2.1c0-1.9,1.5-3.1,3.8-3.1c0.9,0,1.6,0.2,2.2,0.5c0.6-0.3,0.8-1.1,0.8-2l1.9,0.5
		c0,1.3-1,2.1-1.8,2.3c0.5,0.5,0.7,1.2,0.7,1.9c0,1.9-1.5,3.1-3.8,3.1c-0.6,0-1.1-0.1-1.6-0.2c-0.4,0.1-0.6,0.3-0.6,0.5
		c0,0.4,0.4,0.6,1.4,0.6h1.9C107.2,65.9,108.6,66.7,108.6,68.4z M106.3,68.6c0-0.6-0.5-0.8-1.5-0.8h-1.6c-1.2,0-1.6,0.3-1.6,0.8
		c0,0.6,0.6,0.9,2.3,0.9C105.7,69.5,106.3,69.2,106.3,68.6z M104,63.3c0.9,0,1.5-0.5,1.5-1.3c0-0.8-0.6-1.4-1.5-1.4
		c-0.9,0-1.5,0.5-1.5,1.3C102.5,62.7,103.1,63.3,104,63.3z"/>
	<path fill="#FFFFFF" d="M116.3,64.7l1.2,1.4c-0.6,0.8-1.8,1.5-3.7,1.5c-2.9,0-4.6-1.8-4.6-4.4c0-2.5,1.7-4.4,4.3-4.4
		c2.5,0,3.9,1.7,3.9,4c0,0.5-0.1,0.9-0.1,0.9h-5.7c0.2,1.1,1,1.9,2.4,1.9C115.3,65.7,115.9,65.1,116.3,64.7z M111.6,62.5h3.5
		c0-1-0.6-1.8-1.7-1.8C112.6,60.7,111.8,61.3,111.6,62.5z"/>
	<path fill="#FFFFFF" d="M127.3,62.2v5.2h-2.5v-4.8c0-1-0.5-1.7-1.5-1.7c-1.3,0-1.8,1.1-1.8,2.1v4.4h-2.5v-8.5l1.9-0.1
		c0.2,0.6,0.3,1.4,0.3,1.8h0.1c0.4-1,1.2-1.8,2.8-1.8C126.2,58.8,127.3,60.3,127.3,62.2z"/>
	<path fill="#FFFFFF" d="M135.9,64.7L137,66c-0.6,0.8-1.8,1.5-3.7,1.5c-2.9,0-4.6-1.8-4.6-4.4c0-2.5,1.7-4.4,4.3-4.4
		c2.5,0,3.9,1.7,3.9,4c0,0.5-0.1,0.9-0.1,0.9h-5.7c0.2,1.1,1,1.9,2.4,1.9C134.9,65.7,135.5,65.1,135.9,64.7z M131.2,62.5h3.5
		c0-1-0.6-1.8-1.7-1.8C132.2,60.7,131.4,61.3,131.2,62.5z"/>
	<path fill="#FFFFFF" d="M144.5,59.1l-0.6,2.4c-0.3-0.2-0.6-0.3-1-0.3c-0.9,0-1.7,0.8-1.7,2.2v4.1h-2.5v-8.5l1.9-0.1
		c0.2,0.6,0.3,1.5,0.3,1.9h0.1c0.3-1.1,1-1.9,2.3-1.9C143.7,58.8,144.1,58.9,144.5,59.1z"/>
	<path fill="#FFFFFF" d="M153.7,67.4c0,0-0.5,0.2-1.2,0.2c-1.2,0-1.8-0.5-2-1.4c-0.3,0.5-1,1.4-2.7,1.4c-1.8,0-2.9-0.9-2.9-2.3
		c0-2.1,2.2-2.6,5.4-2.7h0.1v-0.4c0-0.9-0.5-1.4-1.5-1.4c-0.9,0-1.5,0.4-1.5,1c0,0.1,0,0.2,0.1,0.3l-2.2,0.4c0,0-0.1-0.4-0.1-0.8
		c0-1.6,1.4-2.7,3.8-2.7c2.5,0,3.9,1.3,3.9,3.4V65c0,0.4,0.1,0.6,0.5,0.6c0.1,0,0.2,0,0.3-0.1L153.7,67.4z M150.4,64.4v-0.7h-0.1
		c-2,0.1-3,0.3-3,1.1c0,0.6,0.5,0.8,1.2,0.8C149.7,65.7,150.4,65.1,150.4,64.4z"/>
	<path fill="#FFFFFF" d="M161.4,66.9c0,0-0.9,0.6-2.5,0.6c-2.2,0-3.4-1.2-3.4-3.6v-3.1h-1.3v-1.9h1.4v-2.4l2.4-0.1v2.5h3v1.9h-3v3
		c0,1.1,0.4,1.6,1.4,1.6c0.9,0,1.4-0.5,1.4-0.5L161.4,66.9z"/>
	<path fill="#FFFFFF" d="M170.9,63.2c0,2.6-1.8,4.4-4.5,4.4c-2.7,0-4.5-1.8-4.5-4.4s1.8-4.4,4.5-4.4
		C169.1,58.8,170.9,60.6,170.9,63.2z M168.4,63.2c0-1.4-0.8-2.3-2-2.3c-1.2,0-2,1-2,2.3c0,1.4,0.8,2.3,2,2.3
		C167.6,65.5,168.4,64.6,168.4,63.2z"/>
	<path fill="#FFFFFF" d="M178.3,59.1l-0.6,2.4c-0.3-0.2-0.6-0.3-1-0.3c-0.9,0-1.7,0.8-1.7,2.2v4.1h-2.5v-8.5l1.9-0.1
		c0.2,0.6,0.3,1.5,0.3,1.9h0.1c0.3-1.1,1-1.9,2.3-1.9C177.5,58.8,177.9,58.9,178.3,59.1z"/>
</g>
<g>
</g>
<g>
</g>
<g>
</g>
<g>
</g>
<g>
</g>
<g>
</g>
</svg>
